<svg width="68" height="68" viewBox="0 0 68 68" fill="none" xmlns="http://www.w3.org/2000/svg">
<g filter="url(#filter0_d_2_4)">
<rect x="4" width="60" height="60" rx="10" fill="#C6AA9E"/>
</g>
<path d="M45.25 23.8056C45.25 24.3213 45.0345 24.8158 44.6509 25.1805C44.2673 25.5451 43.747 25.75 43.2045 25.75H24.7955C24.253 25.75 23.7327 25.5451 23.3491 25.1805C22.9655 24.8158 22.75 24.3213 22.75 23.8056V13.1111C22.75 12.5954 22.9655 12.1008 23.3491 11.7362C23.7327 11.3715 24.253 11.1667 24.7955 11.1667H28.8864L30.9318 8.25H37.0682L39.1136 11.1667H43.2045C43.747 11.1667 44.2673 11.3715 44.6509 11.7362C45.0345 12.1008 45.25 12.5954 45.25 13.1111V23.8056Z" stroke="#6D736A" stroke-width="2" stroke-linecap="round" stroke-linejoin="round"/>
<path d="M34 22C36.0711 22 37.75 20.3211 37.75 18.25C37.75 16.1789 36.0711 14.5 34 14.5C31.9289 14.5 30.25 16.1789 30.25 18.25C30.25 20.3211 31.9289 22 34 22Z" stroke="#6D736A" stroke-width="2" stroke-linecap="round" stroke-linejoin="round"/>
<path d="M10.352 39.648C10.648 39.256 11.032 38.936 11.504 38.688C11.976 38.44 12.488 38.316 13.04 38.316C13.824 38.316 14.452 38.552 14.924 39.024C15.404 39.496 15.644 40.136 15.644 40.944C15.644 41.176 15.62 41.424 15.572 41.688C15.452 42.352 15.208 42.944 14.84 43.464C14.48 43.984 14.036 44.388 13.508 44.676C12.988 44.964 12.436 45.108 11.852 45.108C11.284 45.108 10.808 44.984 10.424 44.736C10.04 44.488 9.772 44.172 9.62 43.788L9.404 45H8.312L9.884 36.12H10.976L10.352 39.648ZM14.456 41.688C14.488 41.52 14.504 41.336 14.504 41.136C14.504 40.552 14.332 40.096 13.988 39.768C13.644 39.432 13.2 39.264 12.656 39.264C12.256 39.264 11.868 39.364 11.492 39.564C11.116 39.756 10.792 40.04 10.52 40.416C10.256 40.784 10.08 41.212 9.992 41.7C9.96 41.868 9.944 42.052 9.944 42.252C9.944 42.836 10.116 43.3 10.46 43.644C10.812 43.98 11.256 44.148 11.792 44.148C12.2 44.148 12.588 44.052 12.956 43.86C13.332 43.66 13.652 43.376 13.916 43.008C14.188 42.632 14.368 42.192 14.456 41.688ZM18.4614 39.672C18.7254 39.24 19.0574 38.904 19.4574 38.664C19.8574 38.424 20.3134 38.304 20.8254 38.304L20.6214 39.432H20.3334C19.7654 39.432 19.2894 39.584 18.9054 39.888C18.5294 40.192 18.2774 40.704 18.1494 41.424L17.5134 45H16.4214L17.5854 38.424H18.6774L18.4614 39.672ZM22.8059 37.356C22.6299 37.356 22.4819 37.3 22.3619 37.188C22.2499 37.068 22.1939 36.92 22.1939 36.744C22.1939 36.504 22.2819 36.3 22.4579 36.132C22.6339 35.956 22.8379 35.868 23.0699 35.868C23.2539 35.868 23.4019 35.924 23.5139 36.036C23.6259 36.148 23.6819 36.296 23.6819 36.48C23.6819 36.72 23.5939 36.928 23.4179 37.104C23.2419 37.272 23.0379 37.356 22.8059 37.356ZM23.1539 38.424L21.9899 45H20.8979L22.0619 38.424H23.1539ZM25.6751 36.636H26.8991L25.2671 39.36H24.4871L25.6751 36.636ZM28.7921 45.108C28.1041 45.108 27.5401 44.944 27.1001 44.616C26.6601 44.288 26.4401 43.848 26.4401 43.296C26.4401 43.192 26.4441 43.116 26.4521 43.068H27.5201C27.4881 43.412 27.5881 43.692 27.8201 43.908C28.0601 44.124 28.4041 44.232 28.8521 44.232C29.3001 44.232 29.6601 44.148 29.9321 43.98C30.2121 43.804 30.3521 43.56 30.3521 43.248C30.3521 42.984 30.2401 42.776 30.0161 42.624C29.7921 42.472 29.4481 42.308 28.9841 42.132C28.5761 41.98 28.2401 41.836 27.9761 41.7C27.7121 41.564 27.4881 41.376 27.3041 41.136C27.1201 40.888 27.0281 40.576 27.0281 40.2C27.0281 39.832 27.1321 39.504 27.3401 39.216C27.5561 38.928 27.8521 38.708 28.2281 38.556C28.6121 38.396 29.0481 38.316 29.5361 38.316C30.2081 38.316 30.7601 38.484 31.1921 38.82C31.6241 39.156 31.8401 39.596 31.8401 40.14C31.8401 40.244 31.8361 40.324 31.8281 40.38H30.7841L30.7961 40.236C30.7961 39.916 30.6721 39.664 30.4241 39.48C30.1841 39.288 29.8641 39.192 29.4641 39.192C29.0721 39.192 28.7481 39.28 28.4921 39.456C28.2441 39.632 28.1201 39.868 28.1201 40.164C28.1201 40.444 28.2361 40.664 28.4681 40.824C28.7001 40.984 29.0601 41.16 29.5481 41.352C29.9561 41.512 30.2841 41.66 30.5321 41.796C30.7801 41.924 30.9921 42.104 31.1681 42.336C31.3441 42.568 31.4321 42.86 31.4321 43.212C31.4321 43.596 31.3161 43.932 31.0841 44.22C30.8601 44.508 30.5481 44.728 30.1481 44.88C29.7481 45.032 29.2961 45.108 28.7921 45.108ZM38.3598 39.648C38.6558 39.256 39.0398 38.936 39.5118 38.688C39.9838 38.44 40.4958 38.316 41.0478 38.316C41.8318 38.316 42.4598 38.552 42.9318 39.024C43.4118 39.496 43.6518 40.136 43.6518 40.944C43.6518 41.176 43.6278 41.424 43.5798 41.688C43.4598 42.352 43.2158 42.944 42.8478 43.464C42.4878 43.984 42.0438 44.388 41.5158 44.676C40.9958 44.964 40.4438 45.108 39.8598 45.108C39.2918 45.108 38.8158 44.984 38.4318 44.736C38.0478 44.488 37.7798 44.172 37.6278 43.788L37.4118 45H36.3198L37.8918 36.12H38.9838L38.3598 39.648ZM42.4638 41.688C42.4958 41.52 42.5118 41.336 42.5118 41.136C42.5118 40.552 42.3398 40.096 41.9958 39.768C41.6518 39.432 41.2078 39.264 40.6638 39.264C40.2638 39.264 39.8758 39.364 39.4998 39.564C39.1238 39.756 38.7998 40.04 38.5278 40.416C38.2638 40.784 38.0878 41.212 37.9998 41.7C37.9678 41.868 37.9518 42.052 37.9518 42.252C37.9518 42.836 38.1238 43.3 38.4678 43.644C38.8198 43.98 39.2638 44.148 39.7998 44.148C40.2078 44.148 40.5958 44.052 40.9638 43.86C41.3398 43.66 41.6598 43.376 41.9238 43.008C42.1958 42.632 42.3758 42.192 42.4638 41.688ZM46.3372 37.356C46.1612 37.356 46.0132 37.3 45.8932 37.188C45.7812 37.068 45.7252 36.92 45.7252 36.744C45.7252 36.504 45.8132 36.3 45.9892 36.132C46.1652 35.956 46.3692 35.868 46.6012 35.868C46.7852 35.868 46.9332 35.924 47.0452 36.036C47.1572 36.148 47.2132 36.296 47.2132 36.48C47.2132 36.72 47.1252 36.928 46.9492 37.104C46.7732 37.272 46.5692 37.356 46.3372 37.356ZM46.6852 38.424L45.5212 45H44.4292L45.5932 38.424H46.6852ZM50.0463 36.12L48.4743 45H47.3823L48.9543 36.12H50.0463ZM50.5034 41.688C50.6234 41.016 50.8634 40.428 51.2234 39.924C51.5914 39.412 52.0394 39.016 52.5674 38.736C53.0954 38.456 53.6554 38.316 54.2474 38.316C54.7514 38.316 55.2034 38.436 55.6034 38.676C56.0034 38.908 56.2874 39.216 56.4554 39.6L57.0674 36.12H58.1714L56.5994 45H55.4954L55.7234 43.764C55.4434 44.156 55.0674 44.48 54.5954 44.736C54.1234 44.984 53.6034 45.108 53.0354 45.108C52.5234 45.108 52.0714 45 51.6794 44.784C51.2874 44.56 50.9794 44.244 50.7554 43.836C50.5394 43.428 50.4314 42.956 50.4314 42.42C50.4314 42.18 50.4554 41.936 50.5034 41.688ZM56.0834 41.7C56.1154 41.532 56.1314 41.352 56.1314 41.16C56.1314 40.576 55.9554 40.116 55.6034 39.78C55.2594 39.436 54.8194 39.264 54.2834 39.264C53.8754 39.264 53.4834 39.36 53.1074 39.552C52.7394 39.744 52.4234 40.024 52.1594 40.392C51.8954 40.76 51.7194 41.192 51.6314 41.688C51.5994 41.856 51.5834 42.04 51.5834 42.24C51.5834 42.832 51.7554 43.3 52.0994 43.644C52.4434 43.98 52.8834 44.148 53.4194 44.148C53.8274 44.148 54.2154 44.052 54.5834 43.86C54.9594 43.66 55.2794 43.376 55.5434 43.008C55.8154 42.632 55.9954 42.196 56.0834 41.7Z" fill="#F8F6F1"/>
<defs>
<filter id="filter0_d_2_4" x="0" y="0" width="68" height="68" filterUnits="userSpaceOnUse" color-interpolation-filters="sRGB">
<feFlood flood-opacity="0" result="BackgroundImageFix"/>
<feColorMatrix in="SourceAlpha" type="matrix" values="0 0 0 0 0 0 0 0 0 0 0 0 0 0 0 0 0 0 127 0" result="hardAlpha"/>
<feOffset dy="4"/>
<feGaussianBlur stdDeviation="2"/>
<feComposite in2="hardAlpha" operator="out"/>
<feColorMatrix type="matrix" values="0 0 0 0 0 0 0 0 0 0 0 0 0 0 0 0 0 0 0.25 0"/>
<feBlend mode="normal" in2="BackgroundImageFix" result="effect1_dropShadow_2_4"/>
<feBlend mode="normal" in="SourceGraphic" in2="effect1_dropShadow_2_4" result="shape"/>
</filter>
</defs>
</svg>
